<?xml version="1.0" encoding="utf-8"?>
<!-- Generator: Adobe Illustrator 16.0.0, SVG Export Plug-In . SVG Version: 6.00 Build 0)  -->
<!DOCTYPE svg PUBLIC "-//W3C//DTD SVG 1.1//EN" "http://www.w3.org/Graphics/SVG/1.1/DTD/svg11.dtd">
<svg version="1.1" id="Layer_3" xmlns="http://www.w3.org/2000/svg" xmlns:xlink="http://www.w3.org/1999/xlink" x="0px" y="0px"
	 width="296px" height="175px" viewBox="0 0 296 175" enable-background="new 0 0 296 175" xml:space="preserve">
<circle fill="#140D0A" cx="221.631" cy="82" r="74"/>
<g>
	<path fill="#FFFFFF" d="M7.836,123.357v-73.22c0-1.941-0.354-3.331-1.059-4.171c-0.708-0.838-1.986-1.258-3.84-1.258
		c-0.089-2.294,0.53-4.104,1.854-5.429c1.324-1.324,3.463-1.986,6.422-1.986c2.957,0,5.009,1.456,6.157,4.369
		c3.443-2.913,6.972-4.369,10.593-4.369c8.739,0,13.108,4.326,13.108,12.976V73.44c0,4.061-1.281,7.15-3.84,9.269
		c3,2.031,4.502,5.385,4.502,10.063v16.551c0,4.415-1.523,7.857-4.568,10.328c-3.045,2.472-7.173,3.707-12.38,3.707H7.836z
		 M25.446,46.033c-2.383,0-4.767,1.191-7.15,3.575v29.129h6.488c1.765,0,3.178-0.484,4.237-1.457c1.059-0.97,1.589-2.251,1.589-3.84
		V51.064C30.61,47.71,28.889,46.033,25.446,46.033z M18.296,87.476v27.143h6.753c1.854,0,3.354-0.463,4.502-1.39
		c1.146-0.927,1.721-2.229,1.721-3.906V92.771c0-1.676-0.575-2.979-1.721-3.906c-1.148-0.926-2.648-1.39-4.502-1.39H18.296z"/>
	<path fill="#FFFFFF" d="M49.94,111.573V70.13c0-8.65,5.098-12.976,15.293-12.976s15.293,4.855,15.293,14.564
		c0,3.885-0.708,7.46-2.119,10.725c-1.413,3.267-3.355,5.74-5.826,7.415l-12.711,8.739v12.049c0,3.707,1.742,5.561,5.23,5.561
		c3.486,0,5.23-2.072,5.23-6.223v-3.045l-0.397-6.224c1.146-0.265,2.317-0.397,3.508-0.397c1.192,0,2.317,0.179,3.376,0.53
		c2.119,0.529,3.178,1.545,3.178,3.045v9.533c0,3.532-1.39,6.289-4.171,8.275c-2.78,1.986-6.467,2.979-11.056,2.979
		C54.883,124.682,49.94,120.313,49.94,111.573z M70.331,71.322c0-1.765-0.53-3.155-1.589-4.17c-1.059-1.014-2.383-1.523-3.972-1.523
		c-3.267,0-4.899,1.37-4.899,4.104v18.934l6.355-4.767C68.961,81.871,70.331,77.677,70.331,71.322z"/>
	<path fill="#FFFFFF" d="M87.675,111.573V70.13c0-8.65,5.098-12.976,15.293-12.976s15.293,4.855,15.293,14.564
		c0,3.885-0.708,7.46-2.119,10.725c-1.413,3.267-3.355,5.74-5.826,7.415l-12.711,8.739v12.049c0,3.707,1.742,5.561,5.23,5.561
		c3.486,0,5.23-2.072,5.23-6.223v-3.045l-0.397-6.224c1.146-0.265,2.317-0.397,3.508-0.397c1.192,0,2.317,0.179,3.376,0.53
		c2.119,0.529,3.178,1.545,3.178,3.045v9.533c0,3.532-1.39,6.289-4.171,8.275c-2.78,1.986-6.467,2.979-11.056,2.979
		C92.617,124.682,87.675,120.313,87.675,111.573z M108.065,71.322c0-1.765-0.53-3.155-1.589-4.17
		c-1.059-1.014-2.383-1.523-3.972-1.523c-3.267,0-4.899,1.37-4.899,4.104v18.934l6.355-4.767
		C106.696,81.871,108.065,77.677,108.065,71.322z"/>
	<path fill="#FFFFFF" d="M136.928,112.5c0,4.237,0.308,7.769,0.927,10.593c-2.648,0.529-5.518,0.794-8.606,0.794
		c-1.502,0-2.251-0.662-2.251-1.985V69.468c0-1.854-0.331-3.178-0.993-3.972c-0.662-0.794-1.92-1.191-3.774-1.191
		c-0.089-2.294,0.507-4.059,1.788-5.296c1.279-1.235,3.112-1.854,5.495-1.854c3.529,0,5.737,1.767,6.62,5.296
		c2.205-3.529,5.34-5.296,9.401-5.296c7.237,0,10.858,3.488,10.858,10.46v13.24c0,1.502-1.059,2.516-3.178,3.045
		c-1.059,0.354-2.186,0.53-3.377,0.53s-2.364-0.132-3.508-0.397c0.264-1.94,0.396-4.016,0.396-6.223v-6.753
		c0-2.913-1.324-4.369-3.973-4.369c-1.237,0-2.383,0.575-3.442,1.721c-1.059,1.148-1.854,2.429-2.383,3.84V112.5z"/>
</g>
<g>
	<path fill="#FFFFFF" d="M188.959,67.977c0.934,0.308,1.768,0.705,2.502,1.189s1.357,1.025,1.871,1.622
		c0.512,0.597,0.902,1.229,1.17,1.895c0.268,0.667,0.4,1.345,0.4,2.034c0,0.872-0.248,1.705-0.744,2.497
		c-0.498,0.794-1.148,1.508-1.951,2.147c-0.803,0.637-1.721,1.183-2.754,1.637c-1.033,0.453-2.078,0.782-3.133,0.987
		c-0.795,0.155-1.568,0.217-2.318,0.187c-0.75-0.03-1.434-0.168-2.053-0.416c-0.621-0.246-1.152-0.614-1.596-1.101
		c-0.443-0.488-0.758-1.111-0.941-1.872c-0.029-0.116-0.045-0.212-0.045-0.29c0-0.413,0.145-0.797,0.436-1.152
		c0.291-0.354,0.611-0.566,0.963-0.635c0.17-0.033,0.357-0.039,0.563-0.017c0.207,0.021,0.363,0.128,0.471,0.321
		c0.199,0.329,0.479,0.604,0.838,0.824s0.762,0.392,1.205,0.511c0.443,0.121,0.914,0.189,1.412,0.208
		c0.496,0.018,0.982-0.019,1.457-0.111c0.488-0.095,0.959-0.232,1.41-0.412c0.451-0.179,0.85-0.402,1.193-0.668
		c0.346-0.266,0.617-0.571,0.814-0.916c0.199-0.344,0.299-0.739,0.299-1.183c0-0.78-0.176-1.465-0.527-2.055
		c-0.352-0.589-0.807-1.108-1.365-1.559c-0.559-0.45-1.193-0.846-1.904-1.19c-0.713-0.343-1.42-0.668-2.123-0.976
		c-0.078-0.031-0.191-0.143-0.346-0.335c-0.152-0.191-0.229-0.403-0.229-0.632c0-0.184,0.045-0.337,0.137-0.462
		c0.246-0.369,0.529-0.752,0.85-1.152c0.322-0.399,0.666-0.775,1.033-1.131c0.367-0.354,0.766-0.661,1.193-0.92
		c0.428-0.258,0.871-0.433,1.33-0.522c0.338-0.065,0.65-0.081,0.941-0.045c0.291,0.036,0.535,0.106,0.734,0.212
		c0.199,0.108,0.355,0.238,0.471,0.391c0.115,0.154,0.172,0.307,0.172,0.46c0,0.214-0.053,0.431-0.16,0.651
		s-0.248,0.438-0.424,0.656c-0.178,0.218-0.375,0.44-0.598,0.667C189.391,67.548,189.174,67.767,188.959,67.977z"/>
	<path fill="#FFFFFF" d="M199.402,64.18c0.26-0.479,0.559-0.843,0.895-1.092s0.68-0.407,1.033-0.476
		c0.58-0.113,1.082-0.023,1.502,0.271c0.422,0.293,0.633,0.73,0.633,1.311c-0.016,0.141-0.035,0.282-0.059,0.424
		c-0.023,0.143-0.072,0.29-0.148,0.442c-0.215,0.439-0.391,0.81-0.527,1.112c-0.139,0.302-0.266,0.583-0.379,0.842
		c-0.115,0.26-0.227,0.515-0.334,0.765c-0.107,0.25-0.236,0.551-0.389,0.902c-0.184,0.418-0.391,0.876-0.621,1.371
		c-0.229,0.497-0.447,1.001-0.654,1.516c-0.205,0.515-0.383,1.015-0.527,1.502c-0.145,0.487-0.217,0.922-0.217,1.305
		c0,0.413,0.102,0.665,0.309,0.754c0.207,0.09,0.502,0.098,0.885,0.023c0.428-0.083,0.875-0.262,1.342-0.536
		s0.938-0.603,1.412-0.986c0.473-0.383,0.939-0.806,1.398-1.271c0.459-0.464,0.891-0.926,1.297-1.388s0.781-0.901,1.125-1.32
		c0.344-0.418,0.631-0.788,0.861-1.108c0.305-0.35,0.611-0.555,0.918-0.614c0.275-0.054,0.5,0.025,0.676,0.235
		c0.176,0.211,0.264,0.507,0.264,0.89c0,0.352-0.088,0.744-0.264,1.176c-0.176,0.433-0.463,0.863-0.859,1.292
		c-0.781,0.948-1.576,1.863-2.387,2.748c-0.813,0.884-1.643,1.688-2.49,2.412c-0.85,0.724-1.703,1.337-2.559,1.84
		c-0.857,0.503-1.723,0.839-2.594,1.009c-1.24,0.241-2.215,0.113-2.926-0.384c-0.713-0.496-1.068-1.417-1.068-2.764
		c0-0.704,0.1-1.412,0.299-2.124c0.199-0.711,0.436-1.412,0.711-2.1c0.275-0.688,0.566-1.357,0.873-2.005
		c0.305-0.648,0.564-1.261,0.779-1.839c0.076-0.213,0.211-0.545,0.402-0.996c0.191-0.45,0.393-0.91,0.607-1.38
		C198.865,65.385,199.127,64.799,199.402,64.18z M201.926,58.525c0-0.352,0.064-0.728,0.195-1.128
		c0.131-0.4,0.324-0.778,0.586-1.135c0.26-0.356,0.584-0.672,0.975-0.947s0.854-0.464,1.389-0.568
		c0.887-0.172,1.506-0.121,1.859,0.155c0.352,0.276,0.527,0.674,0.527,1.194c0,0.291-0.057,0.624-0.172,0.997
		c-0.115,0.375-0.287,0.733-0.516,1.076c-0.23,0.343-0.529,0.649-0.896,0.919c-0.367,0.271-0.803,0.455-1.307,0.553
		c-0.949,0.185-1.615,0.165-1.998-0.059C202.186,59.358,201.973,59.006,201.926,58.525z"/>
	<path fill="#FFFFFF" d="M211.084,62.666c0.305-0.717,0.688-1.281,1.146-1.691s0.91-0.659,1.354-0.745
		c0.367-0.072,0.697-0.001,0.988,0.209c0.289,0.211,0.436,0.577,0.436,1.097c0,0.199-0.023,0.417-0.068,0.656
		c-0.047,0.239-0.131,0.5-0.254,0.784c0.336-0.494,0.818-1.027,1.447-1.601c0.627-0.572,1.318-1.113,2.076-1.619
		c0.758-0.507,1.537-0.953,2.34-1.339c0.805-0.386,1.564-0.648,2.285-0.788c0.811-0.158,1.486-0.094,2.029,0.19
		c0.543,0.284,0.816,0.894,0.816,1.827c0,0.551-0.086,1.141-0.254,1.77c-0.168,0.63-0.387,1.269-0.654,1.917
		s-0.566,1.292-0.895,1.93c-0.328,0.637-0.654,1.24-0.975,1.807c-0.322,0.567-0.617,1.088-0.885,1.56
		c-0.268,0.474-0.479,0.862-0.631,1.167c-0.199,0.284-0.297,0.585-0.297,0.907c0,0.123,0.037,0.222,0.113,0.299
		c0.076,0.077,0.199,0.099,0.367,0.066c0.107-0.021,0.23-0.057,0.367-0.106c0.139-0.05,0.307-0.163,0.506-0.339
		c0.826-0.466,1.67-1.013,2.535-1.64c0.865-0.627,1.695-1.274,2.49-1.941c0.795-0.667,1.525-1.322,2.191-1.964
		c0.666-0.642,1.221-1.212,1.664-1.711c0.123-0.131,0.244-0.231,0.367-0.301c0.123-0.07,0.236-0.115,0.344-0.136
		c0.26-0.051,0.463,0.009,0.609,0.18c0.145,0.171,0.217,0.409,0.217,0.715c0,0.475-0.148,1.032-0.447,1.671
		c-0.299,0.64-0.768,1.273-1.41,1.903c-0.873,0.797-1.672,1.526-2.398,2.188c-0.729,0.662-1.469,1.292-2.227,1.891
		c-0.758,0.598-1.568,1.177-2.434,1.734c-0.863,0.559-1.877,1.119-3.039,1.681c-0.398,0.2-0.762,0.362-1.092,0.488
		c-0.328,0.125-0.631,0.214-0.906,0.268c-0.811,0.158-1.404,0.047-1.777-0.332c-0.375-0.377-0.563-0.973-0.563-1.784
		c0-0.107,0.004-0.211,0.012-0.313c0.006-0.1,0.018-0.213,0.033-0.339c0.031-0.48,0.156-1.024,0.379-1.634
		c0.223-0.609,0.49-1.243,0.803-1.9c0.314-0.658,0.646-1.315,1-1.973c0.352-0.657,0.676-1.279,0.975-1.864
		c0.299-0.586,0.547-1.105,0.746-1.557c0.197-0.452,0.299-0.808,0.299-1.068c0-0.229-0.066-0.412-0.195-0.548
		c-0.131-0.135-0.326-0.177-0.586-0.126c-0.979,0.19-1.908,0.662-2.789,1.414c-0.879,0.752-1.701,1.627-2.467,2.625
		c-0.766,0.997-1.469,2.033-2.111,3.106c-0.643,1.074-1.209,2.033-1.697,2.877c-0.307,0.564-0.586,1.158-0.838,1.781
		c-0.252,0.623-0.516,1.21-0.791,1.76c-0.275,0.551-0.586,1.024-0.93,1.42c-0.346,0.396-0.777,0.645-1.297,0.746
		c-0.537,0.104-0.957,0.018-1.262-0.26c-0.307-0.277-0.459-0.66-0.459-1.15c0-0.26,0.105-0.701,0.32-1.325
		c0.215-0.623,0.49-1.35,0.826-2.18s0.715-1.726,1.137-2.688c0.42-0.961,0.84-1.916,1.262-2.861c0.42-0.946,0.822-1.839,1.205-2.679
		C210.523,63.961,210.838,63.25,211.084,62.666z"/>
	<path fill="#FFFFFF" d="M242.18,55.979c0,0.475-0.055,1.009-0.162,1.604c-0.107,0.595-0.283,1.168-0.527,1.721
		c-0.244,0.552-0.559,1.034-0.941,1.445c-0.383,0.412-0.857,0.671-1.422,0.782c-0.307,0.06-0.502,0.051-0.586-0.024
		c-0.084-0.075-0.125-0.228-0.125-0.457c0-0.138,0.002-0.341,0.01-0.61c0.008-0.269,0.012-0.526,0.012-0.771
		c0-0.275-0.037-0.501-0.113-0.678c-0.078-0.176-0.27-0.234-0.574-0.175c-0.354,0.068-0.746,0.279-1.182,0.631
		c-0.438,0.353-0.873,0.786-1.309,1.298c-0.436,0.514-0.861,1.082-1.273,1.705c-0.414,0.624-0.785,1.247-1.113,1.869
		c-0.33,0.623-0.59,1.213-0.781,1.77c-0.191,0.558-0.285,1.02-0.285,1.387c0,0.536,0.186,0.92,0.561,1.153
		c0.375,0.233,0.885,0.287,1.527,0.163c0.688-0.134,1.422-0.392,2.203-0.773c0.779-0.381,1.557-0.822,2.328-1.324
		c0.773-0.502,1.52-1.03,2.238-1.583c0.719-0.553,1.373-1.074,1.963-1.563c0.588-0.489,1.082-0.906,1.48-1.251
		c0.396-0.345,0.656-0.56,0.779-0.645c0.244-0.17,0.475-0.276,0.689-0.318c0.184-0.036,0.34-0.023,0.469,0.035
		c0.131,0.059,0.234,0.139,0.311,0.238c0.076,0.1,0.129,0.212,0.16,0.336c0.031,0.125,0.047,0.232,0.047,0.324
		c0,0.138-0.016,0.305-0.047,0.502c-0.031,0.198-0.145,0.438-0.344,0.721c-0.076,0.106-0.326,0.389-0.746,0.845
		s-0.963,1.001-1.629,1.636c-0.666,0.634-1.432,1.322-2.295,2.064c-0.865,0.741-1.791,1.446-2.777,2.112s-2.008,1.259-3.063,1.777
		c-1.057,0.519-2.098,0.878-3.121,1.077c-0.781,0.151-1.475,0.164-2.078,0.036c-0.604-0.127-1.113-0.36-1.525-0.702
		c-0.414-0.34-0.727-0.772-0.941-1.297s-0.32-1.101-0.32-1.728c0-0.688,0.16-1.511,0.48-2.469c0.322-0.957,0.766-1.958,1.332-3.001
		c0.564-1.043,1.23-2.091,1.996-3.142s1.596-2.016,2.49-2.894s1.828-1.625,2.799-2.243c0.973-0.617,1.955-1.022,2.949-1.216
		c0.336-0.065,0.654-0.088,0.953-0.07c0.299,0.019,0.559,0.087,0.779,0.204c0.223,0.118,0.398,0.301,0.529,0.551
		C242.113,55.281,242.18,55.597,242.18,55.979z"/>
	<path fill="#FFFFFF" d="M254.342,51.481c1.27-0.247,2.219-0.125,2.846,0.364c0.627,0.491,0.941,1.279,0.941,2.365
		c0,0.643-0.168,1.349-0.504,2.118c-0.338,0.77-0.918,1.598-1.744,2.485s-1.934,1.844-3.316,2.87
		c-1.385,1.027-3.119,2.125-5.199,3.294c0.076,0.429,0.314,0.73,0.713,0.906c0.396,0.175,0.924,0.199,1.582,0.071
		c0.703-0.137,1.457-0.386,2.262-0.75c0.803-0.362,1.598-0.781,2.387-1.255c0.787-0.474,1.557-0.972,2.307-1.493
		c0.748-0.52,1.426-1.007,2.029-1.461c0.605-0.454,1.109-0.843,1.516-1.167c0.404-0.323,0.678-0.529,0.814-0.617
		c0.139-0.119,0.264-0.196,0.379-0.234c0.115-0.037,0.219-0.065,0.311-0.083c0.184-0.036,0.336-0.023,0.459,0.037
		c0.121,0.061,0.225,0.14,0.309,0.238c0.084,0.099,0.141,0.21,0.172,0.333c0.031,0.125,0.047,0.232,0.047,0.324
		c0,0.138-0.016,0.306-0.047,0.502c-0.031,0.198-0.145,0.438-0.344,0.722c-0.076,0.091-0.332,0.348-0.77,0.769
		c-0.436,0.421-0.998,0.928-1.686,1.521c-0.689,0.593-1.488,1.234-2.398,1.924s-1.875,1.347-2.893,1.973
		c-1.018,0.626-2.076,1.188-3.178,1.685s-2.188,0.85-3.258,1.058c-0.918,0.179-1.734,0.161-2.445-0.053
		c-0.711-0.213-1.316-0.57-1.813-1.07c-0.498-0.5-0.877-1.115-1.137-1.845c-0.26-0.729-0.389-1.522-0.389-2.38
		c0-0.657,0.129-1.405,0.389-2.244c0.26-0.838,0.635-1.703,1.125-2.594c0.49-0.891,1.09-1.784,1.801-2.68
		c0.713-0.896,1.512-1.72,2.398-2.474c0.887-0.753,1.863-1.41,2.926-1.969C251.998,52.113,253.133,51.716,254.342,51.481z
		 M253.516,54.808c-0.076,0-0.145,0.005-0.205,0.017c-0.063,0.012-0.131,0.026-0.207,0.041c-0.582,0.113-1.125,0.333-1.629,0.661
		c-0.506,0.328-0.969,0.72-1.389,1.176c-0.422,0.457-0.797,0.955-1.125,1.493c-0.33,0.539-0.623,1.066-0.883,1.583
		c-0.262,0.518-0.479,1.007-0.654,1.47c-0.178,0.463-0.311,0.848-0.402,1.157c0.535-0.38,1.09-0.801,1.664-1.265
		c0.574-0.463,1.113-0.905,1.617-1.324c0.506-0.419,0.945-0.795,1.32-1.128c0.375-0.333,0.639-0.56,0.791-0.682
		c0.689-0.562,1.162-1.056,1.424-1.482c0.26-0.425,0.391-0.775,0.391-1.051c0-0.229-0.074-0.399-0.219-0.508
		C253.863,54.855,253.699,54.803,253.516,54.808z"/>
	<path fill="#FFFFFF" d="M199.676,114.344c0.063-0.026,0.115-0.047,0.162-0.065c0.045-0.016,0.092-0.028,0.137-0.038
		c0.322-0.063,0.59,0.008,0.803,0.212c0.215,0.202,0.322,0.479,0.322,0.831c0,0.506-0.18,0.992-0.539,1.459
		c-0.359,0.469-0.814,0.891-1.365,1.265s-1.156,0.694-1.814,0.961c-0.656,0.265-1.285,0.456-1.881,0.571
		c-0.49,0.096-0.973,0.163-1.445,0.201c-0.475,0.039-0.996,0.029-1.561-0.029c-0.566-0.059-1.201-0.18-1.906-0.364
		c-0.703-0.185-1.537-0.451-2.5-0.799c-0.904,0.741-1.611,1.323-2.123,1.743c-0.514,0.422-0.906,0.734-1.182,0.941
		s-0.467,0.336-0.574,0.387s-0.199,0.084-0.275,0.1c-0.184,0.035-0.371,0.016-0.563-0.063s-0.371-0.191-0.539-0.343
		s-0.307-0.334-0.414-0.55c-0.105-0.217-0.16-0.456-0.16-0.716c0-0.214,0.051-0.437,0.15-0.671c0.098-0.234,0.271-0.459,0.516-0.676
		c1.01-0.746,2.035-1.531,3.074-2.352c1.041-0.822,2.043-1.668,3.008-2.535c0.963-0.869,1.865-1.744,2.707-2.627
		c0.842-0.882,1.576-1.748,2.203-2.598c0.627-0.848,1.121-1.67,1.48-2.467s0.539-1.547,0.539-2.252c0-0.688-0.168-1.141-0.504-1.358
		c-0.338-0.218-0.781-0.272-1.332-0.165c-0.443,0.086-0.922,0.256-1.434,0.508c-0.514,0.254-1.029,0.549-1.549,0.887
		c-0.521,0.338-1.037,0.691-1.549,1.059c-0.514,0.367-0.988,0.711-1.424,1.033s-0.822,0.594-1.158,0.811
		c-0.338,0.219-0.598,0.346-0.781,0.381c-0.244,0.049-0.475,0.039-0.688-0.027c-0.215-0.064-0.398-0.17-0.551-0.316
		c-0.154-0.146-0.271-0.318-0.355-0.517c-0.086-0.196-0.127-0.411-0.127-0.641c0-0.382,0.176-0.81,0.527-1.284
		c0.352-0.474,0.818-0.959,1.4-1.455c0.582-0.494,1.246-0.982,1.996-1.466c0.75-0.481,1.52-0.931,2.307-1.343
		c0.787-0.413,1.568-0.768,2.342-1.063c0.771-0.296,1.479-0.505,2.121-0.63c0.75-0.146,1.459-0.188,2.123-0.127
		c0.666,0.063,1.244,0.256,1.732,0.581c0.49,0.325,0.877,0.806,1.16,1.438c0.283,0.634,0.424,1.448,0.424,2.442
		c0,0.842-0.133,1.71-0.4,2.603c-0.27,0.894-0.754,1.855-1.459,2.888c-0.703,1.032-1.656,2.14-2.855,3.321
		c-1.201,1.182-2.736,2.482-4.602,3.9c0.656,0.162,1.361,0.271,2.111,0.323c0.748,0.054,1.422,0.022,2.02-0.094
		c0.443-0.086,0.84-0.171,1.193-0.255c0.352-0.084,0.688-0.176,1.01-0.277c0.32-0.1,0.643-0.205,0.963-0.313
		C198.92,114.606,199.279,114.484,199.676,114.344z"/>
	<path fill="#FFFFFF" d="M222.488,99.951c0,0.994-0.135,2.061-0.402,3.199c-0.268,1.138-0.654,2.291-1.158,3.46
		c-0.506,1.169-1.117,2.306-1.836,3.409s-1.533,2.111-2.443,3.022c-0.912,0.911-1.906,1.69-2.984,2.336s-2.223,1.085-3.432,1.32
		c-0.947,0.185-1.801,0.175-2.559-0.03c-0.756-0.204-1.402-0.572-1.939-1.104c-0.535-0.531-0.947-1.219-1.238-2.066
		c-0.291-0.846-0.436-1.818-0.436-2.92c0-0.965,0.137-2.008,0.412-3.133s0.67-2.252,1.182-3.385
		c0.514-1.133,1.133-2.243,1.859-3.334c0.727-1.09,1.541-2.078,2.443-2.965c0.904-0.887,1.887-1.648,2.949-2.283
		c1.064-0.635,2.184-1.066,3.363-1.295c0.918-0.18,1.758-0.17,2.523,0.024c0.766,0.196,1.424,0.546,1.975,1.052
		c0.551,0.504,0.975,1.156,1.273,1.955S222.488,98.926,222.488,99.951z M218.174,100.789c0-1.086-0.199-1.828-0.598-2.225
		c-0.396-0.396-0.91-0.535-1.537-0.413c-0.994,0.194-1.955,0.659-2.879,1.397c-0.926,0.738-1.748,1.641-2.469,2.705
		c-0.719,1.066-1.295,2.238-1.732,3.516c-0.436,1.278-0.654,2.545-0.654,3.799c0,0.49,0.039,0.965,0.115,1.424
		s0.211,0.862,0.402,1.207c0.191,0.346,0.451,0.602,0.779,0.766c0.33,0.167,0.754,0.199,1.273,0.098
		c0.797-0.154,1.531-0.477,2.203-0.967c0.674-0.49,1.281-1.088,1.826-1.789c0.543-0.703,1.016-1.476,1.422-2.32
		c0.406-0.842,0.746-1.693,1.021-2.551c0.275-0.856,0.482-1.688,0.619-2.494C218.105,102.133,218.174,101.416,218.174,100.789z"/>
	<path fill="#FFFFFF" d="M227.01,110.639c0.428-0.773,0.818-1.51,1.17-2.213s0.684-1.385,0.998-2.042s0.619-1.302,0.918-1.935
		c0.299-0.631,0.607-1.27,0.93-1.912l3.145-6.326c-0.199,0.115-0.533,0.311-0.998,0.584c-0.467,0.274-0.965,0.566-1.492,0.875
		c-0.527,0.31-1.025,0.602-1.492,0.876s-0.791,0.46-0.975,0.558c-0.047,0.039-0.104,0.068-0.172,0.09
		c-0.07,0.021-0.119,0.034-0.15,0.04c-0.244,0.048-0.463-0.013-0.654-0.183s-0.287-0.422-0.287-0.76
		c0-0.289,0.092-0.629,0.275-1.016c0.184-0.388,0.514-0.818,0.988-1.293c1.023-0.889,2.049-1.708,3.074-2.458
		c0.428-0.313,0.881-0.626,1.354-0.94c0.475-0.313,0.945-0.604,1.412-0.871c0.467-0.266,0.926-0.496,1.377-0.691
		s0.869-0.33,1.25-0.404c0.445-0.086,0.83-0.043,1.16,0.131c0.328,0.174,0.492,0.551,0.492,1.132c0,0.184-0.014,0.397-0.045,0.64
		c-0.031,0.244-0.107,0.507-0.23,0.791c-0.229,0.519-0.508,1.181-0.836,1.986c-0.33,0.807-0.686,1.686-1.068,2.641
		c-0.383,0.954-0.783,1.961-1.205,3.021c-0.42,1.063-0.842,2.107-1.262,3.139c-0.42,1.029-0.83,2.017-1.229,2.957
		c-0.396,0.943-0.756,1.773-1.078,2.493c-0.229,0.503-0.5,0.962-0.814,1.375s-0.643,0.771-0.986,1.075
		c-0.344,0.305-0.701,0.554-1.068,0.747s-0.711,0.321-1.031,0.384c-0.49,0.096-0.906,0.051-1.252-0.135
		c-0.344-0.186-0.516-0.531-0.516-1.036c0-0.168,0.016-0.37,0.045-0.605C226.787,111.117,226.871,110.879,227.01,110.639z"/>
	<path fill="#FFFFFF" d="M262.58,92.617c-0.152,1.437-0.611,3.148-1.377,5.133s-1.867,4.11-3.305,6.379
		c-1.438,2.27-3.229,4.624-5.369,7.067c-2.143,2.444-4.674,4.845-7.598,7.202c-0.121,0.146-0.252,0.24-0.389,0.283
		c-0.139,0.043-0.268,0.075-0.391,0.1c-0.475,0.092-0.895-0.004-1.262-0.283c-0.367-0.281-0.551-0.658-0.551-1.133
		c0-0.26,0.076-0.558,0.229-0.895c0.152-0.334,0.422-0.654,0.803-0.958c1.531-1.216,2.881-2.396,4.051-3.542
		c1.172-1.145,2.182-2.213,3.029-3.205c0.85-0.99,1.561-1.894,2.135-2.709c0.574-0.816,1.045-1.503,1.412-2.064
		c-0.918,0.576-1.867,1.07-2.846,1.482c-0.98,0.412-1.928,0.707-2.846,0.885c-0.658,0.129-1.273,0.153-1.848,0.074
		c-0.574-0.08-1.076-0.281-1.504-0.604c-0.428-0.321-0.766-0.777-1.01-1.365c-0.244-0.586-0.367-1.332-0.367-2.234
		c0-1.162,0.168-2.33,0.506-3.506c0.336-1.174,0.803-2.316,1.398-3.428c0.598-1.109,1.305-2.158,2.123-3.144s1.703-1.872,2.65-2.661
		c0.949-0.789,1.947-1.452,2.996-1.994c1.047-0.54,2.1-0.912,3.154-1.117c0.965-0.188,1.828-0.195,2.594-0.023
		c0.766,0.173,1.416,0.49,1.951,0.952c0.535,0.462,0.949,1.059,1.238,1.79c0.291,0.731,0.438,1.563,0.438,2.497
		c0,0.168-0.004,0.337-0.012,0.506C262.607,92.274,262.596,92.445,262.58,92.617z M258.381,92.975c0-0.063,0.004-0.121,0.012-0.176
		s0.012-0.121,0.012-0.197c0-0.781-0.262-1.369-0.781-1.765s-1.225-0.507-2.111-0.335c-0.582,0.113-1.17,0.361-1.768,0.745
		c-0.596,0.384-1.174,0.853-1.732,1.404s-1.086,1.171-1.582,1.856c-0.498,0.686-0.93,1.382-1.297,2.088
		c-0.367,0.707-0.658,1.406-0.873,2.098s-0.32,1.328-0.32,1.91c0,0.842,0.197,1.41,0.596,1.708s0.926,0.382,1.584,0.255
		c0.443-0.086,0.934-0.247,1.469-0.48c0.535-0.234,1.09-0.525,1.664-0.875c0.574-0.349,1.154-0.744,1.744-1.188
		c0.588-0.442,1.158-0.925,1.709-1.446C257.67,96.433,258.229,94.564,258.381,92.975z"/>
</g>
<g>
	<path fill="#FFFFFF" d="M19.744,163.575v0.823h-6.333l-3.799-6.522H6.667v6.522c-1.899,0-3.831,0-5.667,0
		c0-7.377,0-14.755,0-22.163c3.198,0,6.491,0,9.72,0c8.707,0.031,10.29,10.512,4.686,14.311L19.744,163.575z M10.72,147.301
		c-1.33-0.031-2.723,0-4.053,0c0,1.805,0,3.705,0,5.478h4.053C13.792,152.778,13.95,147.333,10.72,147.301z"/>
	<path fill="#FFFFFF" d="M42.059,147.301c-3.293,0-4.939,0-8.201,0v3.135h7.536c0,1.678,0,3.356,0,5.034h-7.536
		c0,1.298,0,2.564,0,3.895c3.261,0,5.161,0,8.485,0c0,1.646,0,3.356,0,5.034c-5.192,0-8.992,0-14.121,0c0-7.409,0-14.817,0-22.163
		c5.129,0,8.644,0,13.836,0C42.059,143.882,42.059,145.591,42.059,147.301z"/>
	<path fill="#FFFFFF" d="M63.14,157.781c0-1.552-1.836-1.805-4.053-1.932c-4.813-0.349-7.979-1.994-8.042-6.808
		c-0.19-9.562,17.034-9.562,16.908,0c-1.995,0-3.451,0-5.383,0c0-2.944-5.952-2.69-6.142-0.063c-0.127,1.678,1.52,2.026,3.514,2.247
		c4.401,0.476,8.707,1.045,8.707,6.586c0,9.309-18.047,9.563-17.92-0.189c1.899,0,3.546,0,5.478,0
		C56.207,160.44,63.14,160.377,63.14,157.781z"/>
	<path fill="#FFFFFF" d="M75.672,147.301c0-1.71,0-3.388,0-5.065h16.464c0,1.678,0,3.355,0,5.065h-5.415v17.098
		c-1.868,0-3.736,0-5.604,0v-17.098H75.672z"/>
	<path fill="#FFFFFF" d="M112.269,161.612h-8.739l-1.298,2.786h-5.541v-0.823l9.974-21.625h2.438l10.005,21.625v0.823h-5.541
		L112.269,161.612z M107.868,150.91l-2.47,5.826h5.002L107.868,150.91z"/>
	<path fill="#FFFFFF" d="M138.51,156.926v-14.69c1.805,0,3.705,0,5.478,0v14.786c0,4.876-4.274,7.693-8.833,7.693
		c-4.528,0-8.802-2.817-8.802-7.693v-14.786c1.773,0,3.641,0,5.414,0v14.69c0,1.805,1.742,2.691,3.388,2.691
		S138.51,158.73,138.51,156.926z"/>
	<path fill="#FFFFFF" d="M173.205,163.575v0.823h-6.332l-3.799-6.522h-2.945v6.522c-1.9,0-3.83,0-5.668,0c0-7.377,0-14.755,0-22.163
		c3.199,0,6.492,0,9.721,0c8.707,0.031,10.291,10.512,4.686,14.311L173.205,163.575z M164.182,147.301c-1.33-0.031-2.723,0-4.053,0
		c0,1.805,0,3.705,0,5.478h4.053C167.254,152.778,167.412,147.333,164.182,147.301z"/>
	<path fill="#FFFFFF" d="M195.457,161.612h-8.738l-1.299,2.786h-5.541v-0.823l9.973-21.625h2.439l10.004,21.625v0.823h-5.541
		L195.457,161.612z M191.055,150.91l-2.469,5.826h5.002L191.055,150.91z"/>
	<path fill="#FFFFFF" d="M216.125,153.507v10.892c-1.963,0-3.926,0-5.857,0V142.14h2.059l11.207,10.955v-10.859
		c1.932,0,3.863,0,5.795,0v22.194h-2.025L216.125,153.507z"/>
	<path fill="#FFFFFF" d="M237.838,147.301c0-1.71,0-3.388,0-5.065h16.465c0,1.678,0,3.355,0,5.065h-5.414v17.098
		c-1.869,0-3.736,0-5.605,0v-17.098H237.838z"/>
</g>
</svg>
